<svg width="28" height="28" viewBox="0 0 28 28" fill="none" xmlns="http://www.w3.org/2000/svg">
<path d="M5.15666 24.0089C4.82939 24.0083 4.51741 23.8703 4.29683 23.6286C4.07218 23.3888 3.96055 23.0645 3.98999 22.7372L4.27583 19.5942L17.4802 6.39455L21.6067 10.5199L8.40583 23.7184L5.26283 24.0042C5.22666 24.0077 5.19049 24.0089 5.15666 24.0089ZM22.4303 9.69505L18.305 5.56972L20.7795 3.09522C20.9983 2.87615 21.2953 2.75305 21.6049 2.75305C21.9146 2.75305 22.2115 2.87615 22.4303 3.09522L24.9048 5.56972C25.1239 5.78855 25.247 6.08549 25.247 6.39514C25.247 6.70478 25.1239 7.00172 24.9048 7.22055L22.4315 9.69389L22.4303 9.69505Z" fill="#fff"/>
</svg>
